<svg xmlns="http://www.w3.org/2000/svg" xmlns:xlink="http://www.w3.org/1999/xlink" x="0px" y="0px" viewBox="0 0 13.8 13.9" style="enable-background:new 0 0 13.8 13.9;" xml:space="preserve"><g transform="translate(6156.683 -6447.657) rotate(45)">	<path d="M223.6,8913.4c-0.2,0-0.4-0.1-0.6-0.2l-7.6-7.6l-7.6,7.6c-0.3,0.3-0.8,0.3-1.1,0  c-0.2-0.1-0.2-0.4-0.2-0.6c0-0.2,0.1-0.4,0.2-0.6l8.7-8.7l8.7,8.7c0.2,0.2,0.2,0.4,0.2,0.6c0,0.2-0.1,0.4-0.2,0.6  C224.1,8913.3,223.9,8913.4,223.6,8913.4L223.6,8913.4z"></path>	<path d="M215.5,8921.5L215.5,8921.5c-0.4,0-0.8-0.4-0.8-0.8l0.1-15.3c0-0.4,0.4-0.8,0.8-0.8  l0,0c0.4,0,0.8,0.4,0.8,0.8l-0.1,15.3C216.3,8921.2,216,8921.5,215.5,8921.5z"></path></g></svg>