<svg xmlns="http://www.w3.org/2000/svg" width="23.996" height="23.232" viewBox="0 0 23.996 23.232"><path d="M23.836,8.794a3.179,3.179,0,0,0-3.067-2.226H16.4L15.073,2.432a3.227,3.227,0,0,0-6.146,0L7.6,6.568H3.231a3.227,3.227,0,0,0-1.9,5.832L4.887,15,3.535,19.187a3.228,3.228,0,0,0,4.984,3.594L12,20.219l3.482,2.559a3.227,3.227,0,0,0,4.983-3.591L19.113,15l3.56-2.6a3.177,3.177,0,0,0,1.163-3.606Zm-2.343,1.991-4.144,3.029a1,1,0,0,0-.362,1.116l1.575,4.87a1.227,1.227,0,0,1-1.9,1.365l-4.075-3a1,1,0,0,0-1.184,0l-4.075,3a1.227,1.227,0,0,1-1.9-1.365l1.58-4.87a1,1,0,0,0-.362-1.116L2.507,10.785a1.227,1.227,0,0,1,.724-2.217h5.1a1,1,0,0,0,.952-.694l1.55-4.831a1.227,1.227,0,0,1,2.336,0l1.55,4.831a1,1,0,0,0,.952.694h5.1a1.227,1.227,0,0,1,.724,2.217Z" transform="translate(-0.008 -0.189)"></path></svg>