<svg xmlns="http://www.w3.org/2000/svg" width="20.963" height="20.963" viewBox="0 0 20.963 20.963"><g transform="translate(0.001)"><path d="M15.288,0H5.674A5.681,5.681,0,0,0,0,5.675v9.614a5.681,5.681,0,0,0,5.675,5.674h9.614a5.681,5.681,0,0,0,5.674-5.674V5.675A5.681,5.681,0,0,0,15.288,0Zm4.446,15.289a4.451,4.451,0,0,1-4.446,4.445H5.674a4.451,4.451,0,0,1-4.446-4.445V5.675A4.451,4.451,0,0,1,5.674,1.229h9.614a4.451,4.451,0,0,1,4.445,4.446Zm0,0"></path><path d="M121.736,116a5.732,5.732,0,1,0,5.732,5.732A5.738,5.738,0,0,0,121.736,116Zm0,10.235a4.5,4.5,0,1,1,4.5-4.5A4.508,4.508,0,0,1,121.736,126.239Zm0,0" transform="translate(-111.255 -111.254)"></path><path d="M359.671,66.285a1.694,1.694,0,1,0,1.694,1.694A1.7,1.7,0,0,0,359.671,66.285Zm0,2.159a.465.465,0,1,1,.465-.465A.465.465,0,0,1,359.671,68.444Zm0,0" transform="translate(-343.321 -63.571)"></path></g></svg>